<svg width="22" height="17" viewBox="0 0 22 17" fill="none" xmlns="http://www.w3.org/2000/svg">
<path opacity="0.65" d="M8.59718 10.9625C8.27829 10.6465 8.02546 10.2702 7.8534 9.85559C7.68134 9.44094 7.5935 8.9962 7.59498 8.54727C7.59373 7.86958 7.7936 7.20677 8.16927 6.64274C8.54495 6.07872 9.07954 5.63885 9.70536 5.37883C10.3312 5.11882 11.0201 5.05035 11.6848 5.18209C12.3496 5.31383 12.9603 5.63987 13.4397 6.11891" stroke="white" stroke-width="0.8" stroke-linecap="round" stroke-linejoin="round"/>
<path opacity="0.65" d="M14.3876 9.15552C14.2635 9.83956 13.934 10.4696 13.4429 10.9617C12.9518 11.4538 12.3225 11.7846 11.6387 11.9101" stroke="white" stroke-width="0.8" stroke-linecap="round" stroke-linejoin="round"/>
<path opacity="0.65" d="M5.23131 14.3277C3.36119 12.7834 1.9067 10.7962 1.00004 8.54669C1.91747 6.28575 3.38226 4.28818 5.26277 2.73346C6.88817 1.39861 8.92007 0.657767 11.0232 0.633179C13.136 0.66085 15.1759 1.40953 16.805 2.75518" stroke="white" stroke-width="0.8" stroke-linecap="round" stroke-linejoin="round"/>
<path opacity="0.65" d="M19.0935 5.13751C19.8767 6.19248 20.5321 7.33647 21.0462 8.5456C18.9145 13.4843 15.148 16.4587 11.0227 16.4587C10.09 16.4585 9.16345 16.3074 8.279 16.0112" stroke="white" stroke-width="0.8" stroke-linecap="round" stroke-linejoin="round"/>
</svg>
